<?xml version="1.0" encoding="UTF-8"?>
<svg xmlns="http://www.w3.org/2000/svg" version="1.1" viewBox="0 0 500 500">
  <defs>
    <style>
      .cls-1 {
        fill: none;
        stroke: #fff;
        stroke-dasharray: 28.3 42.4;
        stroke-miterlimit: 10;
        stroke-width: 9.5px;
      }

      .cls-2 {
        fill: #89d7df;
      }
    </style>
  </defs>
  <!-- Generator: Adobe Illustrator 28.6.0, SVG Export Plug-In . SVG Version: 1.2.0 Build 709)  -->
  <g>
    <g id="_レイヤー_1" data-name="レイヤー_1">
      <g id="_レイヤー_1-2" data-name="_レイヤー_1">
        <g id="_レイヤー_1-2">
          <g id="_レイヤー_1-2-2" data-name="_レイヤー_1-2">
            <g>
              <path class="cls-2" d="M490.5,249.1c0,32.7-10.8,62.6-22.6,91-12.2,29.5-24.9,59.4-47.2,81.6-22.2,22.2-52.1,34.9-81.6,47.2-28.4,11.8-58.4,17.5-91,17.5s-65.5,1.4-94-10.4c-29.5-12.2-57-31.5-79.2-53.7-22.2-22.2-41.8-49.6-54-79.1-11.8-28.4-13.1-61.4-13.1-94.1s1.4-65.6,13.2-94.1,33.7-54.9,55.9-77.1c22.2-22.2,47.7-43.6,77.2-55.8s61.3-10.7,94-10.7,64.5,1.5,93,13.2c28.5,11.7,58.3,28.8,80.5,51,22.2,22.2,34,53,46.3,82.4,11.8,28.4,22.7,58.3,22.7,91h0Z"/>
              <path class="cls-1" d="M229.3,457.8c-23.4,0-45.8-.6-64.2-8.3-24.8-10.3-49.6-27.1-70-47.5s-37.8-45.6-47.8-69.8c-10.1-24.3-10.9-55.7-10.9-83.1s.9-58.5,11-83.1c11.5-27.8,33.9-52,49.7-67.9,25-25,46.6-40.8,67.9-49.6,19-7.9,42.7-8.5,67.4-8.5s5.2,0,7.8,0h7.9c34.2,0,59.8,1.8,82,11.1,29.9,12.4,53.9,27.5,71.2,44.8,16.8,16.8,27,41.5,37.8,67.7l2.3,5.5c10.4,25.1,20.5,51.9,20.5,80s-10.6,56.2-20.5,80.1c-10.4,25.1-22.2,53.6-41,72.3-18.7,18.7-47.2,30.5-72.3,41-24.8,10.3-51,15.3-80.1,15.3s-6.3,0-9.5,0h-9.3.1Z"/>
            </g>
          </g>
        </g>
      </g>
    </g>
  </g>
</svg>